<svg width="98" height="98" viewBox="0 0 98 98" fill="none" xmlns="http://www.w3.org/2000/svg">
<g clip-path="url(#clip0_5_9)">
<path d="M80.85 60.6375C83.0827 60.6375 84.8925 58.8277 84.8925 56.595C84.8925 54.3623 83.0827 52.5525 80.85 52.5525C78.6173 52.5525 76.8075 54.3623 76.8075 56.595C76.8075 58.8277 78.6173 60.6375 80.85 60.6375Z" fill="#3AB399"/>
<path fill-rule="evenodd" clip-rule="evenodd" d="M67.8129 3.98346C74.7535 1.8627 81.9904 6.27185 83.2888 13.4122L84.6346 20.8147C89.4791 22.4045 92.9775 26.9637 92.9775 32.34V43.5131C95.4584 45.7336 97.02 48.9607 97.02 52.5525V60.6375C97.02 64.2293 95.4584 67.4564 92.9775 69.6769V80.85C92.9775 87.548 87.548 92.9775 80.85 92.9775H16.17C9.47217 92.9775 4.04248 87.548 4.04248 80.85V32.34C4.04248 26.3292 8.41542 21.3397 14.1535 20.3794L67.8129 3.98346ZM84.8925 64.68C87.1252 64.68 88.935 62.8702 88.935 60.6375V52.5525C88.935 50.3198 87.1252 48.51 84.8925 48.51H72.765C70.5323 48.51 68.7225 50.3198 68.7225 52.5525V60.6375C68.7225 62.8702 70.5323 64.68 72.765 64.68H84.8925ZM84.8925 72.765V80.85C84.8925 83.0827 83.0827 84.8925 80.85 84.8925H16.17C13.9374 84.8925 12.1275 83.0827 12.1275 80.85V32.34C12.1275 30.1074 13.9374 28.2975 16.17 28.2975H80.85C83.0734 28.2975 84.8771 30.0922 84.8925 32.3118V40.425H72.765C66.067 40.425 60.6375 45.8545 60.6375 52.5525V60.6375C60.6375 67.3355 66.067 72.765 72.765 72.765H84.8925ZM75.5762 14.5815L76.5698 20.2125H40.425L70.4333 11.412C72.7509 10.7168 75.1557 12.199 75.5762 14.5815Z" fill="#3AB399"/>
</g>
<defs>
<clipPath id="clip0_5_9">
<rect width="97.02" height="97.02" fill="white"/>
</clipPath>
</defs>
</svg>
